<!DOCTYPE svg PUBLIC "-//W3C//DTD SVG 1.1//EN" "http://www.w3.org/Graphics/SVG/1.1/DTD/svg11.dtd">
<!-- Uploaded to: SVG Repo, www.svgrepo.com, Transformed by: SVG Repo Mixer Tools -->
<svg fill="#fff" version="1.1" id="Layer_1" xmlns="http://www.w3.org/2000/svg" xmlns:xlink="http://www.w3.org/1999/xlink" viewBox="0 0 512 512" xml:space="preserve" width="800px" height="800px" stroke="#15154D">

<g id="SVGRepo_bgCarrier" stroke-width="0"/>

<g id="SVGRepo_tracerCarrier" stroke-linecap="round" stroke-linejoin="round"/>

<g id="SVGRepo_iconCarrier"> <g> <g> <rect x="180.813" y="424.585" width="15.61" height="39.545"/> </g> </g> <g> <g> <rect x="196.423" y="247.675" width="15.61" height="119.675"/> </g> </g> <g> <g> <rect x="228.683" y="71.805" width="15.61" height="32.26"/> </g> </g> <g> <g> <rect x="268.228" y="71.805" width="15.61" height="32.26"/> </g> </g> <g> <g> <rect x="308.813" y="71.805" width="15.61" height="32.26"/> </g> </g> <g> <g> <rect x="348.358" y="71.805" width="15.61" height="32.26"/> </g> </g> <g> <g> <rect x="388.943" y="71.805" width="15.61" height="32.26"/> </g> </g> <g> <g> <rect x="228.683" y="128" width="15.61" height="32.26"/> </g> </g> <g> <g> <rect x="268.228" y="128" width="15.61" height="32.26"/> </g> </g> <g> <g> <rect x="308.813" y="128" width="15.61" height="32.26"/> </g> </g> <g> <g> <rect x="348.358" y="128" width="15.61" height="32.26"/> </g> </g> <g> <g> <rect x="388.943" y="128" width="15.61" height="32.26"/> </g> </g> <g> <g> <rect x="228.683" y="184.195" width="15.61" height="32.26"/> </g> </g> <g> <g> <rect x="268.228" y="184.195" width="15.61" height="32.26"/> </g> </g> <g> <g> <rect x="308.813" y="184.195" width="15.61" height="32.26"/> </g> </g> <g> <g> <rect x="348.358" y="184.195" width="15.61" height="32.26"/> </g> </g> <g> <g> <rect x="388.943" y="184.195" width="15.61" height="32.26"/> </g> </g> <g> <g> <rect x="308.813" y="239.35" width="15.61" height="32.26"/> </g> </g> <g> <g> <rect x="348.358" y="239.35" width="15.61" height="32.26"/> </g> </g> <g> <g> <rect x="388.943" y="239.35" width="15.61" height="32.26"/> </g> </g> <g> <g> <rect x="228.683" y="296.585" width="15.61" height="31.219"/> </g> </g> <g> <g> <rect x="308.813" y="296.585" width="15.61" height="31.219"/> </g> </g> <g> <g> <rect x="348.358" y="296.585" width="15.61" height="31.219"/> </g> </g> <g> <g> <rect x="388.943" y="296.585" width="15.61" height="31.219"/> </g> </g> <g> <g> <rect x="228.683" y="351.74" width="15.61" height="15.61"/> </g> </g> <g> <g> <rect x="308.813" y="351.74" width="15.61" height="32.26"/> </g> </g> <g> <g> <rect x="308.813" y="407.935" width="15.61" height="32.26"/> </g> </g> <g> <g> <rect x="348.358" y="351.74" width="15.61" height="32.26"/> </g> </g> <g> <g> <rect x="388.943" y="351.74" width="15.61" height="32.26"/> </g> </g> <g> <g> <rect x="348.358" y="407.935" width="15.61" height="32.26"/> </g> </g> <g> <g> <rect x="388.943" y="407.935" width="15.61" height="32.26"/> </g> </g> <g> <g> <path d="M76.228,376.203v135.603h223.596V376.203H76.228z M284.214,472.455h-15.986v15.61h15.986v8.132H91.837v-8.132h16.13 v-15.61h-16.13v-80.642h192.377V472.455z"/> </g> </g> <g> <g> <path d="M283.837,239.35h-15.61v28.426c-17.196-26.206-46.923-43.562-80.65-43.562c-53.078,0-96.26,42.976-96.26,95.799v47.336 h15.61v-47.336c0-44.216,36.18-80.189,80.65-80.189c15.006,0,29.059,4.108,41.106,11.235v20.551h15.61v-8.544 c14.768,14.542,23.935,34.697,23.935,56.948v47.336h15.61v-47.336c0-17.646-4.824-34.19-13.221-48.404h13.221V239.35z"/> </g> </g> <g> <g> <path d="M196.423,0v216.455h15.61V47.87h7.285V32.26h-7.285V15.61h208.13v16.65H235.967v15.61h184.195v448.52h-40.585v-32.26 h-55.154v32.26h-15.61V512h126.959V0H196.423z M363.967,496.39h-23.935v-16.65h23.935V496.39z"/> </g> </g> </g>

</svg>