<!DOCTYPE svg PUBLIC "-//W3C//DTD SVG 1.1//EN" "http://www.w3.org/Graphics/SVG/1.1/DTD/svg11.dtd">
<!-- Uploaded to: SVG Repo, www.svgrepo.com, Transformed by: SVG Repo Mixer Tools -->
<svg fill="#15154D" version="1.1" id="Capa_1" xmlns="http://www.w3.org/2000/svg" xmlns:xlink="http://www.w3.org/1999/xlink" width="800px" height="800px" viewBox="0 0 70.873 70.873" xml:space="preserve" stroke="#15154D">
<g id="SVGRepo_bgCarrier" stroke-width="0"/>
<g id="SVGRepo_tracerCarrier" stroke-linecap="round" stroke-linejoin="round"/>
<g id="SVGRepo_iconCarrier"> <g> <g> <path d="M70.27,39.589L56.453,25.771v-9.112c0-1.135-0.922-2.057-2.057-2.057c-1.138,0-2.057,0.922-2.057,2.057v5.002 l-9.749-9.748c-0.803-0.803-2.104-0.803-2.903,0L27.252,24.347c-0.423,1.854-1.881,3.312-3.734,3.735 c-0.356,0.082-0.725,0.129-1.105,0.129c-2.74,0-4.969-2.229-4.969-4.969c0-1.938-1.574-3.511-3.51-3.511s-3.511,1.573-3.511,3.511 v10.523h7.411h5.813l17.492-17.492l26.225,26.223c0.397,0.399,0.928,0.604,1.453,0.604c0.522,0,1.053-0.199,1.453-0.604 C71.074,41.693,71.074,40.392,70.27,39.589z"/> <path d="M64.389,41.948L42.594,20.153c-0.385-0.388-0.908-0.604-1.453-0.604s-1.068,0.216-1.453,0.604l-13.95,13.948 c2.266,0.8,3.895,2.955,3.895,5.49v15.659c0,1.709-0.744,3.244-1.92,4.312h5.129c1.378,0,2.706-0.581,3.645-1.598 c0.854-0.923,1.324-2.119,1.324-3.373V46.78c0-1.897,1.453-3.479,3.33-3.659c1.877,0.18,3.33,1.762,3.33,3.659v7.812 c0,1.254,0.471,2.45,1.324,3.373c0.939,1.014,2.268,1.596,3.645,1.596h10.642c2.735,0,4.969-2.229,4.969-4.969V43.955 c0-0.312-0.028-0.628-0.092-0.941C64.877,42.61,64.68,42.239,64.389,41.948z"/> <path d="M23.807,36.68H7.51V23.242c0-3.542,2.882-6.424,6.424-6.424c3.543,0,6.424,2.882,6.424,6.424 c0,1.135,0.92,2.056,2.055,2.056c1.135,0,2.056-0.921,2.056-2.056c0-5.81-4.726-10.534-10.534-10.534 C8.127,12.708,3.4,17.434,3.4,23.242V36.68H2.914C1.305,36.68,0,37.984,0,39.593v15.658c0,1.609,1.305,2.913,2.914,2.913h20.895 c1.608,0,2.913-1.304,2.913-2.913V39.594C26.72,37.984,25.416,36.68,23.807,36.68z M15.352,48.506v2.256 c0,1.104-0.891,1.991-1.991,1.991s-1.991-0.891-1.991-1.991v-2.256c-0.92-0.636-1.525-1.695-1.525-2.896 c0-1.94,1.574-3.519,3.517-3.519c1.94,0,3.517,1.575,3.517,3.519C16.877,46.808,16.272,47.87,15.352,48.506z"/> <path d="M13.36,45.006c-0.333,0-0.604,0.271-0.604,0.604c0,0.282,0.186,0.44,0.266,0.496l0.339,0.231l0.338-0.231 c0.078-0.056,0.264-0.215,0.264-0.499C13.963,45.275,13.692,45.006,13.36,45.006z"/> </g> </g> </g>
</svg>